# This file uses centimeters as units for non-parametric coordinates.

g default
v 0.500000 -0.500000 -0.866025
v -0.500000 -0.500000 -0.866026
v -1.000000 -0.500000 -0.000000
v -0.500000 -0.500000 0.866025
v 0.500000 -0.500000 0.866025
v 1.000000 -0.500000 0.000000
v 0.500000 0.500000 -0.866025
v -0.500000 0.500000 -0.866026
v -1.000000 0.500000 -0.000000
v -0.500000 0.500000 0.866025
v 0.500000 0.500000 0.866025
v 1.000000 0.500000 0.000000
v 0.000000 -0.500000 0.000000
v 0.000000 0.500000 0.000000
vt 0.916057 0.030198
vt 0.772302 0.030198
vt 0.700425 0.154693
vt 0.772302 0.279188
vt 0.916057 0.279188
vt 0.987934 0.154693
vt 0.985402 0.511374
vt 0.747166 0.511374
vt 0.747166 0.908433
vt 0.985402 0.590785
vt 0.747166 0.590786
vt 0.985402 0.670197
vt 0.747166 0.670197
vt 0.985402 0.749609
vt 0.747166 0.749609
vt 0.985402 0.829021
vt 0.747166 0.829021
vt 0.407188 0.363982
vt 0.844180 0.154693
vt 0.208936 0.707364
vt 0.605439 0.707364
vt 0.803691 0.363982
vt 0.605439 0.020600
vt 0.208936 0.020600
vt 0.010684 0.363982
vt 0.985402 0.908433
vt 0.985402 0.987845
vt 0.747166 0.987845
vn 0.000000 0.000000 -1.000000
vn 0.000000 0.000000 -1.000000
vn 0.000000 0.000000 -1.000000
vn 0.000000 0.000000 -1.000000
vn -0.866025 0.000000 -0.500000
vn -0.866025 0.000000 -0.500000
vn -0.866025 0.000000 -0.500000
vn -0.866025 0.000000 -0.500000
vn -0.866026 0.000000 0.500000
vn -0.866026 0.000000 0.500000
vn -0.866026 0.000000 0.500000
vn -0.866026 0.000000 0.500000
vn -0.000000 0.000000 1.000000
vn -0.000000 0.000000 1.000000
vn -0.000000 0.000000 1.000000
vn -0.000000 0.000000 1.000000
vn 0.866026 0.000000 0.500000
vn 0.866026 0.000000 0.500000
vn 0.866026 0.000000 0.500000
vn 0.866026 0.000000 0.500000
vn 0.866026 0.000000 -0.500000
vn 0.866026 0.000000 -0.500000
vn 0.866026 0.000000 -0.500000
vn 0.866026 0.000000 -0.500000
vn 0.000000 -1.000000 0.000000
vn 0.000000 -1.000000 0.000000
vn 0.000000 -1.000000 0.000000
vn 0.000000 -1.000000 0.000000
vn 0.000000 -1.000000 -0.000000
vn 0.000000 -1.000000 -0.000000
vn 0.000000 -1.000000 0.000000
vn 0.000000 1.000000 0.000000
vn 0.000000 1.000000 -0.000000
vn 0.000000 1.000000 0.000000
vn 0.000000 1.000000 -0.000000
vn 0.000000 1.000000 0.000000
vn 0.000000 1.000000 0.000000
vn 0.000000 1.000000 0.000000
s off
g pHex

f 1/26/1 2/27/2 8/28/3 7/9/4
f 2/7/5 3/10/6 9/11/7 8/8/8
f 3/10/9 4/12/10 10/13/11 9/11/12
f 4/12/13 5/14/14 11/15/15 10/13/16
f 5/14/17 6/16/18 12/17/19 11/15/20
f 6/16/21 1/26/22 7/9/23 12/17/24
s 1
f 2/2/25 1/1/26 13/19/27
f 3/3/28 2/2/25 13/19/27
f 4/4/29 3/3/28 13/19/27
f 5/5/30 4/4/29 13/19/27
f 6/6/31 5/5/30 13/19/27
f 1/1/26 6/6/31 13/19/27
s 2
f 7/24/32 8/23/33 14/18/34
f 8/23/33 9/22/35 14/18/34
f 9/22/35 10/21/36 14/18/34
f 10/21/36 11/20/37 14/18/34
f 11/20/37 12/25/38 14/18/34
f 12/25/38 7/24/32 14/18/34
