# This file uses centimeters as units for non-parametric coordinates.

v 0.500000 -0.500000 -0.866025
v -0.500000 -0.500000 -0.866026
v -1.000000 -0.500000 -0.000000
v -0.500000 -0.500000 0.866025
v 0.500000 -0.500000 0.866025
v 1.000000 -0.500000 0.000000
v 0.500000 0.500000 -0.866025
v -0.500000 0.500000 -0.866026
v -1.000000 0.500000 -0.000000
v -0.500000 0.500000 0.866025
v 0.500000 0.500000 0.866025
v 1.000000 0.500000 0.000000
v 0.000000 -0.500000 0.000000
v 0.000000 0.500000 0.000000
vt 0.500000 0.500000
vt 0.250000 1.000000
vt 0.750000 1.000000
vt 1.000000 0.500000
vt 0.750000 0.000000
vt 0.250000 0.000000
vt 0.000000 0.500000
vn 0.000000 0.000000 -1.000000
vn 0.000000 0.000000 -1.000000
vn 0.000000 0.000000 -1.000000
vn 0.000000 0.000000 -1.000000
vn -0.866025 0.000000 -0.500000
vn -0.866025 0.000000 -0.500000
vn -0.866025 0.000000 -0.500000
vn -0.866025 0.000000 -0.500000
vn -0.866026 0.000000 0.500000
vn -0.866026 0.000000 0.500000
vn -0.866026 0.000000 0.500000
vn -0.866026 0.000000 0.500000
vn -0.000000 0.000000 1.000000
vn -0.000000 0.000000 1.000000
vn -0.000000 0.000000 1.000000
vn -0.000000 0.000000 1.000000
vn 0.866026 0.000000 0.500000
vn 0.866026 0.000000 0.500000
vn 0.866026 0.000000 0.500000
vn 0.866026 0.000000 0.500000
vn 0.866026 0.000000 -0.500000
vn 0.866026 0.000000 -0.500000
vn 0.866026 0.000000 -0.500000
vn 0.866026 0.000000 -0.500000
vn 0.000000 -1.000000 0.000000
vn 0.000000 -1.000000 0.000000
vn 0.000000 -1.000000 0.000000
vn 0.000000 -1.000000 0.000000
vn 0.000000 -1.000000 -0.000000
vn 0.000000 -1.000000 -0.000000
vn 0.000000 -1.000000 0.000000
vn 0.000000 1.000000 0.000000
vn 0.000000 1.000000 -0.000000
vn 0.000000 1.000000 0.000000
vn 0.000000 1.000000 -0.000000
vn 0.000000 1.000000 0.000000
vn 0.000000 1.000000 0.000000
vn 0.000000 1.000000 0.000000
f 1//1 2//2 8//3 7//4
f 2//5 3//6 9//7 8//8
f 3//9 4//10 10//11 9//12
f 4//13 5//14 11//15 10//16
f 5//17 6//18 12//19 11//20
f 6//21 1//22 7//23 12//24
f 2//25 1//26 13//27
f 3//28 2//25 13//27
f 4//29 3//28 13//27
f 5//30 4//29 13//27
f 6//31 5//30 13//27
f 1//26 6//31 13//27
f 7/6/32 8/5/33 14/1/34
f 8/5/33 9/4/35 14/1/34
f 9/4/35 10/3/36 14/1/34
f 10/3/36 11/2/37 14/1/34
f 11/2/37 12/7/38 14/1/34
f 12/7/38 7/6/32 14/1/34
